PathFileType	4	(X/Y/Z)	c:/Users/goper/Files/vsCode/490R/osim_files/C11/C11_Slow_03.trc
DataRate	CameraRate	NumFrames	NumMarkers	Units                	OrigDataRate	OrigDataStartFrame	OrigNumFrames
120.00	120.00	6	36	mm	120.0	508	1354
                Frame#	Time	LPSIS			LASIS			LTH1			LTH2			LTH3			LTH4			LLFE			LMFE			LSH1			LSH2			LSH3			LSH4			LLMAL			LMMAL			LCAL			LMTP5			LTOE			LMTP1			RPSIS			RASIS			RTH1			RTH2			RTH3			RTH4			RLFE			RMFE			RSH1			RSH2			RSH3			RSH4			RLMAL			RMMAL			RCAL			RMTP1			RTOE			RMTP5		
		X1	Y1	Z1	X2	Y2	Z2	X3	Y3	Z3	X4	Y4	Z4	X5	Y5	Z5	X6	Y6	Z6	X7	Y7	Z7	X8	Y8	Z8	X9	Y9	Z9	X10	Y10	Z10	X11	Y11	Z11	X12	Y12	Z12	X13	Y13	Z13	X14	Y14	Z14	X15	Y15	Z15	X16	Y16	Z16	X17	Y17	Z17	X18	Y18	Z18	X19	Y19	Z19	X20	Y20	Z20	X21	Y21	Z21	X22	Y22	Z22	X23	Y23	Z23	X24	Y24	Z24	X25	Y25	Z25	X26	Y26	Z26	X27	Y27	Z27	X28	Y28	Z28	X29	Y29	Z29	X30	Y30	Z30	X31	Y31	Z31	X32	Y32	Z32	X33	Y33	Z33	X34	Y34	Z34	X35	Y35	Z35	X36	Y36	Z36

508	4.22500	1949.76929	971.29565	335.43967	0.00000	0.00000	0.00000	1909.68066	594.85846	461.43970	1922.04761	550.80035	454.49216	1964.63000	608.46356	441.38882	1970.17932	561.03131	440.12122	0.00000	0.00000	0.00000	1969.25549	484.76309	442.71729	2008.55920	380.08350	450.11407	2032.60632	340.75272	444.22098	2059.18579	408.85785	441.09726	2078.03149	367.04190	437.23035	2174.11475	117.59499	361.96310	2133.21802	131.22302	272.31003	2230.54443	92.40786	300.43069	2077.67798	44.13134	399.92191	1999.76782	57.43363	338.61816	2032.57092	48.66697	289.61429	1940.18860	981.72760	253.90285	1767.87903	958.36029	189.02982	1725.66443	608.01575	153.30313	1704.91846	572.45471	162.15593	1666.76111	633.45996	162.66090	1656.77625	593.61237	166.89722	1648.36182	508.08102	181.31459	1662.57385	488.28229	294.99612	1674.51697	384.45566	173.08167	1653.34973	343.38583	177.01131	1614.96594	405.51437	172.10732	1602.85315	358.83044	175.41049	1534.88782	99.14887	229.93671	1510.12817	129.33472	318.74579	1571.65637	46.37201	292.26151	1371.41333	128.83267	290.47156	1378.88281	134.23692	238.91429	1405.25940	85.50651	187.45059
509	4.23333	1938.41772	970.27649	335.17523	0.00000	0.00000	0.00000	1899.51221	593.57391	461.61127	1911.91541	549.49084	454.62250	1954.26917	607.26105	440.93759	1959.93237	559.86169	439.79675	0.00000	0.00000	0.00000	1959.31262	483.68332	442.72375	2000.35474	379.47906	450.18707	2025.31042	340.92603	444.48285	2050.47607	409.70480	441.26001	2071.52686	373.83151	440.11615	2171.99048	120.73321	362.67532	2130.68237	133.84332	273.04559	2228.88281	97.07955	300.99133	2077.34741	44.29564	399.95715	1999.45435	57.20039	338.77332	2032.16443	48.88609	289.81393	1928.57397	980.69531	253.70917	1755.77661	957.32025	189.83900	1712.47791	607.88403	154.81180	1691.91028	572.26141	163.97331	1653.58911	633.11774	165.05968	1643.69690	593.30469	169.33801	1636.18054	507.64331	182.89828	1651.34851	487.50168	297.15604	1664.36523	384.19434	174.07152	1644.17175	342.63577	178.48770	1605.89661	404.77121	173.68303	1593.24146	356.93344	178.10861	1530.81079	99.46250	231.48032	1505.34436	127.21652	321.48654	1569.49500	47.24482	293.39130	1366.73071	121.88461	291.83813	1373.87781	130.32466	241.62843	1401.51624	82.73568	189.27153
510	4.24167	1926.83765	969.38239	334.87289	0.00000	0.00000	0.00000	1888.90076	592.30225	461.76974	1901.32349	548.21436	454.73520	1943.54504	606.08826	440.62375	1949.25085	558.66663	439.54700	0.00000	0.00000	0.00000	1949.20679	482.89636	442.65488	1991.87830	379.18137	450.26645	2017.81128	341.38113	444.74432	2041.37170	410.74710	441.47543	2063.38037	375.03073	440.33307	2169.50464	124.05914	363.64221	2127.87939	136.79724	273.98959	2226.93140	102.28772	301.77628	2076.96362	44.47956	400.04776	1999.04749	57.02871	338.91702	2031.67163	49.07806	290.13388	1916.96692	979.89551	253.39156	1743.73315	956.58081	190.72014	1699.87305	608.00177	156.19261	1679.45325	571.95898	165.69005	1640.78748	632.75568	167.58969	1631.33789	592.92755	171.81013	1623.70557	507.32852	185.53543	1640.62927	485.61661	298.30402	1654.54883	383.76785	175.71706	1634.73035	341.99121	180.49252	1594.37061	403.01117	176.49156	1583.68176	355.82605	180.47852	1524.85645	100.82150	233.27658	1498.04712	125.41926	325.17920	1565.79211	49.66517	294.79962	1361.15991	116.15237	294.10938	1367.21313	126.81203	244.25787	1396.86035	80.29992	191.56865
511	4.25000	1915.12036	968.64209	334.54901	0.00000	0.00000	0.00000	1877.71826	591.09949	461.88138	1890.11487	546.98267	454.77521	1932.31812	604.91742	440.43866	1938.00354	557.48785	439.30240	0.00000	0.00000	0.00000	1938.37671	482.09216	442.32364	0.00000	0.00000	0.00000	2009.87610	342.27475	445.01355	2031.46680	412.29764	442.39297	2054.84619	376.53296	440.48337	2166.60059	127.72948	364.81146	2124.79663	140.15237	275.13596	2224.55103	108.06799	302.87567	2076.32617	44.78474	400.20435	1998.64282	56.95513	339.03348	2031.02478	49.38215	290.49976	1905.33447	979.40002	253.04640	1731.64185	956.18036	191.49281	1687.43433	607.81732	157.82970	1667.87292	572.08551	167.13960	1629.11218	633.07526	169.66727	1619.89685	592.87701	173.80484	1613.13550	507.22925	186.62894	1631.39087	484.26730	299.17419	1643.97119	383.83649	177.82306	1624.22559	341.90384	182.36169	1583.84351	402.87585	178.20734	1573.13757	355.53860	182.21860	1517.78674	101.63640	235.05801	1489.55688	122.83212	329.28354	1561.83374	52.17273	296.25204	1354.21387	108.12585	297.17789	1359.23218	120.14745	247.42665	1392.08301	76.66705	193.97235
512	4.25833	1903.24768	968.04547	334.27499	0.00000	0.00000	0.00000	1865.85474	589.90710	462.01141	1878.18347	545.75543	454.75745	1920.43738	603.61511	440.30878	1926.06262	556.21515	439.17096	0.00000	0.00000	0.00000	1927.01880	481.61365	441.91043	0.00000	0.00000	0.00000	2001.29688	343.19003	445.16678	2021.26819	413.83975	442.62363	2043.10754	375.21378	439.19366	2163.21924	131.78458	366.06570	2121.08569	143.79576	276.37759	2221.66016	114.57811	303.98718	2075.71704	45.30166	400.38205	1998.34387	56.86278	339.13922	2030.21033	49.77940	290.81903	1893.53333	979.10297	252.87616	1719.67346	956.15155	191.85666	1675.88428	608.02649	158.52380	1656.40857	572.19019	168.01552	1617.80737	633.26385	171.46774	1608.54541	592.86725	175.56096	1602.51160	507.01215	187.49133	1623.17554	483.46161	299.82611	1632.39319	384.16800	178.37418	1612.89746	342.31030	182.95403	1572.32275	403.29581	179.70589	1561.70703	355.79919	183.57883	1511.30310	101.18053	236.42200	1483.01111	119.74182	332.07190	1558.84875	54.01181	297.00684	1348.25671	98.13531	300.69864	1352.09229	111.60983	250.71259	1387.50378	71.17558	196.87485
513	4.26667	1891.26855	967.61841	334.20996	0.00000	0.00000	0.00000	1853.18457	588.69836	462.04535	1865.44128	544.54248	454.79019	1907.79675	602.24548	440.36459	1913.27783	554.81317	439.08682	0.00000	0.00000	0.00000	1914.80176	481.26709	441.62961	0.00000	0.00000	0.00000	1992.14429	344.67596	445.50284	2010.27808	415.62207	442.84042	2033.20984	377.55319	439.37442	2160.38281	137.58302	367.40027	2116.66504	147.71736	277.73499	2218.04346	121.80072	305.05383	2075.02881	46.17261	400.61060	1998.22998	57.06994	339.08179	2029.28345	50.28101	291.06888	1881.62061	979.00226	252.94865	1707.72009	956.36346	191.99803	1663.72327	608.27722	159.10451	1643.78748	571.21503	167.45795	1606.12500	633.18323	173.13458	1596.91699	592.99298	177.05424	1592.23792	507.14835	188.05824	1615.27905	483.65692	300.23380	1620.58069	384.92249	177.67786	1601.49756	342.83374	182.30098	1560.54346	403.72202	181.06058	1550.22876	356.02136	184.82590	1506.31104	99.87513	236.91327	1478.71143	117.38128	333.22815	1556.85229	55.11892	296.89868	1344.02869	90.09933	304.64377	1346.75427	103.54958	254.44585	1383.01001	64.63857	199.68860
